<svg xmlns="http://www.w3.org/2000/svg" xmlns:xlink="http://www.w3.org/1999/xlink" preserveAspectRatio="xMidYMid" width="300" height="300" viewBox="0 0 300 300">
  <defs>
    <style>
      .cls-1 {
        fill: #2a2935;
      }

      .cls-2 {
        fill: #d0dae4;
      }

      .cls-3 {
        fill: #51517a;
      }
    </style>
  </defs>
  <rect width="300" height="300" rx="20" ry="20" class="cls-1"/>
  <rect x="20" y="20" width="82.5" height="260" rx="10" ry="10" class="cls-2"/>
  <rect x="109" y="20" width="82.5" height="260" rx="10" ry="10" class="cls-2"/>
  <rect x="198" y="20" width="82.5" height="260" rx="10" ry="10" class="cls-2"/>
  <rect x="29" y="30" width="63.5" height="30" rx="10" ry="10" class="cls-3"/>
  <rect x="29" y="70" width="63.5" height="30" rx="10" ry="10" class="cls-3"/>
  <rect x="29" y="110" width="63.5" height="30" rx="10" ry="10" class="cls-3"/>
  <rect x="119" y="30" width="63.5" height="30" rx="10" ry="10" class="cls-3"/>
  <rect x="119" y="70" width="63.5" height="30" rx="10" ry="10" class="cls-3"/>
  <rect x="119" y="110" width="63.5" height="30" rx="10" ry="10" class="cls-3"/>
  <rect x="119" y="150" width="63.5" height="30" rx="10" ry="10" class="cls-3"/>
  <rect x="208" y="30" width="63.5" height="30" rx="10" ry="10" class="cls-3"/>
  <rect x="208" y="70" width="63.5" height="30" rx="10" ry="10" class="cls-3"/>
</svg>
