<?xml version="1.0" standalone="no"?>
<!DOCTYPE svg PUBLIC "-//W3C//DTD SVG 20010904//EN"
 "http://www.w3.org/TR/2001/REC-SVG-20010904/DTD/svg10.dtd">
<svg version="1.0" xmlns="http://www.w3.org/2000/svg"
 width="300.000000pt" height="300.000000pt" viewBox="0 0 300.000000 300.000000"
 preserveAspectRatio="xMidYMid meet">
<metadata>
Created by potrace 1.11, written by Peter Selinger 2001-2013
</metadata>
<g transform="translate(0.000000,300.000000) scale(0.100000,-0.100000)"
fill="#000000" stroke="none">
<path d="M132 2989 c-46 -13 -109 -80 -122 -128 -7 -27 -9 -454 -8 -1383 l3
-1343 24 -38 c13 -21 42 -50 64 -65 l41 -27 1366 0 1366 0 41 27 c22 15 51 44
64 65 l24 38 0 1366 0 1365 -27 41 c-15 22 -44 51 -65 64 l-38 24 -1350 2
c-834 1 -1363 -2 -1383 -8z m864 -223 l34 -34 0 -1232 0 -1232 -34 -34 -34
-34 -347 0 -347 0 -34 34 -34 34 0 1232 0 1232 34 34 34 34 347 0 347 0 34
-34z m890 0 l34 -34 0 -1232 0 -1232 -34 -34 -34 -34 -347 0 -347 0 -34 34
-34 34 0 1232 0 1232 34 34 34 34 347 0 347 0 34 -34z m890 0 l34 -34 0 -1232
0 -1232 -34 -34 -34 -34 -347 0 -347 0 -34 34 -34 34 0 1232 0 1232 34 34 34
34 347 0 347 0 34 -34z"/>
<path d="M355 2691 c-48 -21 -60 -48 -60 -142 0 -83 2 -90 28 -116 l27 -28
260 0 260 0 27 28 c26 26 28 32 28 117 0 85 -2 91 -28 117 l-27 28 -248 2
c-136 1 -256 -2 -267 -6z"/>
<path d="M355 2291 c-48 -21 -60 -48 -60 -142 0 -83 2 -90 28 -116 l27 -28
260 0 260 0 27 28 c26 26 28 32 28 117 0 85 -2 91 -28 117 l-27 28 -248 2
c-136 1 -256 -2 -267 -6z"/>
<path d="M355 1891 c-48 -21 -60 -48 -60 -142 0 -83 2 -90 28 -116 l27 -28
260 0 260 0 27 28 c26 26 28 32 28 117 0 85 -2 91 -28 117 l-27 28 -248 2
c-136 1 -256 -2 -267 -6z"/>
<path d="M1255 2691 c-48 -21 -60 -48 -60 -142 0 -83 2 -90 28 -116 l27 -28
260 0 260 0 27 28 c26 26 28 32 28 117 0 85 -2 91 -28 117 l-27 28 -248 2
c-136 1 -256 -2 -267 -6z"/>
<path d="M1255 2291 c-48 -21 -60 -48 -60 -142 0 -83 2 -90 28 -116 l27 -28
260 0 260 0 27 28 c26 26 28 32 28 117 0 85 -2 91 -28 117 l-27 28 -248 2
c-136 1 -256 -2 -267 -6z"/>
<path d="M1255 1891 c-48 -21 -60 -48 -60 -142 0 -83 2 -90 28 -116 l27 -28
260 0 260 0 27 28 c26 26 28 32 28 117 0 85 -2 91 -28 117 l-27 28 -248 2
c-136 1 -256 -2 -267 -6z"/>
<path d="M1255 1491 c-48 -21 -60 -48 -60 -142 0 -83 2 -90 28 -116 l27 -28
260 0 260 0 27 28 c26 26 28 32 28 117 0 85 -2 91 -28 117 l-27 28 -248 2
c-136 1 -256 -2 -267 -6z"/>
<path d="M2145 2691 c-48 -21 -60 -48 -60 -142 0 -83 2 -90 28 -116 l27 -28
260 0 260 0 27 28 c26 26 28 32 28 117 0 85 -2 91 -28 117 l-27 28 -248 2
c-136 1 -256 -2 -267 -6z"/>
<path d="M2145 2291 c-48 -21 -60 -48 -60 -142 0 -83 2 -90 28 -116 l27 -28
260 0 260 0 27 28 c26 26 28 32 28 117 0 85 -2 91 -28 117 l-27 28 -248 2
c-136 1 -256 -2 -267 -6z"/>
</g>
</svg>
