<?xml version="1.0" standalone="no"?>
<!DOCTYPE svg PUBLIC "-//W3C//DTD SVG 20010904//EN"
 "http://www.w3.org/TR/2001/REC-SVG-20010904/DTD/svg10.dtd">
<svg version="1.0" xmlns="http://www.w3.org/2000/svg"
 width="300.000000pt" height="300.000000pt" viewBox="0 0 300.000000 300.000000"
 preserveAspectRatio="xMidYMid meet">
<metadata>
Created by potrace 1.11, written by Peter Selinger 2001-2013
</metadata>
<g transform="translate(0.000000,300.000000) scale(0.100000,-0.100000)"
fill="#000000" stroke="none">
<path d="M132 2989 c-46 -13 -109 -80 -122 -128 -7 -27 -9 -454 -8 -1383 l3
-1343 24 -38 c13 -21 42 -50 64 -65 l41 -27 1366 0 1366 0 41 27 c22 15 51 44
64 65 l24 38 0 1366 0 1365 -27 41 c-15 22 -44 51 -65 64 l-38 24 -1350 2
c-834 1 -1363 -2 -1383 -8z m864 -223 l34 -34 0 -1232 0 -1232 -34 -34 -34
-34 -347 0 -347 0 -34 34 -34 34 0 1232 0 1232 34 34 34 34 347 0 347 0 34
-34z m890 0 l34 -34 0 -1232 0 -1232 -34 -34 -34 -34 -347 0 -347 0 -34 34
-34 34 0 1232 0 1232 34 34 34 34 347 0 347 0 34 -34z m890 0 l34 -34 0 -1232
0 -1232 -34 -34 -34 -34 -347 0 -347 0 -34 34 -34 34 0 1232 0 1232 34 34 34
34 347 0 347 0 34 -34z"/>
<path d="M338 2683 c-14 -9 -31 -27 -37 -40 -15 -32 -14 -156 1 -188 23 -51
46 -55 308 -55 262 0 285 4 308 55 15 32 16 156 1 188 -24 53 -46 57 -311 57
-209 0 -247 -3 -270 -17z"/>
<path d="M338 2283 c-14 -9 -31 -27 -37 -40 -15 -32 -14 -156 1 -188 23 -51
46 -55 308 -55 262 0 285 4 308 55 15 32 16 156 1 188 -24 53 -46 57 -311 57
-209 0 -247 -3 -270 -17z"/>
<path d="M338 1883 c-14 -9 -31 -27 -37 -40 -15 -32 -14 -156 1 -188 23 -51
46 -55 308 -55 262 0 285 4 308 55 15 32 16 156 1 188 -24 53 -46 57 -311 57
-209 0 -247 -3 -270 -17z"/>
<path d="M1238 2683 c-14 -9 -31 -27 -37 -40 -15 -32 -14 -156 1 -188 23 -51
46 -55 308 -55 262 0 285 4 308 55 15 32 16 156 1 188 -24 53 -46 57 -311 57
-209 0 -247 -3 -270 -17z"/>
<path d="M1238 2283 c-14 -9 -31 -27 -37 -40 -15 -32 -14 -156 1 -188 23 -51
46 -55 308 -55 262 0 285 4 308 55 15 32 16 156 1 188 -24 53 -46 57 -311 57
-209 0 -247 -3 -270 -17z"/>
<path d="M1238 1883 c-14 -9 -31 -27 -37 -40 -15 -32 -14 -156 1 -188 23 -51
46 -55 308 -55 262 0 285 4 308 55 15 32 16 156 1 188 -24 53 -46 57 -311 57
-209 0 -247 -3 -270 -17z"/>
<path d="M1238 1483 c-37 -23 -48 -53 -48 -133 0 -81 13 -116 51 -136 40 -20
498 -20 538 0 38 20 51 55 51 136 0 146 -9 150 -322 150 -209 0 -247 -3 -270
-17z"/>
<path d="M2128 2683 c-14 -9 -31 -27 -37 -40 -15 -32 -14 -156 1 -188 23 -51
46 -55 308 -55 262 0 285 4 308 55 15 32 16 156 1 188 -24 53 -46 57 -311 57
-209 0 -247 -3 -270 -17z"/>
<path d="M2128 2283 c-14 -9 -31 -27 -37 -40 -15 -32 -14 -156 1 -188 23 -51
46 -55 308 -55 262 0 285 4 308 55 15 32 16 156 1 188 -24 53 -46 57 -311 57
-209 0 -247 -3 -270 -17z"/>
</g>
</svg>
